<svg width="51" height="55" viewBox="0 0 51 55" fill="none" xmlns="http://www.w3.org/2000/svg">
<g filter="url(#filter0_d_439_6742)">
<path fill-rule="evenodd" clip-rule="evenodd" d="M34.9917 26.8989C38.3381 29.0583 41.3476 30.0813 43.9599 29.8417C44.4112 39.1817 41.0266 44.6982 35.0266 47C29.23 44.8439 25.8105 39.554 26.0552 29.6993C29.2737 29.9435 32.4644 28.9437 34.9917 26.8989ZM26.9895 11.1457L33.5743 17.4263H26.9895V11.1457ZM13.7596 25.3482H27.0658C27.9365 25.3482 28.051 26.5623 27.4853 26.9669C27.2215 27.0155 26.9609 27.0576 26.6971 27.0932H13.7691C12.7458 27.0932 12.7458 25.3677 13.7691 25.3515L13.7596 25.3482ZM13.7596 30.7676H23.0361C23.0615 31.3633 23.1028 31.9428 23.1537 32.5094H13.7691C12.7394 32.5094 12.7521 30.7676 13.7691 30.7676H13.7596ZM13.7596 36.1871H23.678C23.7988 36.786 23.9355 37.3687 24.088 37.9288H13.7691C12.7394 37.9288 12.7521 36.1871 13.7691 36.1871H13.7596ZM13.7596 19.9288H21.4153C22.445 19.9288 22.4323 21.6673 21.4153 21.6673H13.7691C12.7394 21.6673 12.749 19.9288 13.7691 19.9288H13.7596ZM13.7596 14.8882H17.9704C18.9842 14.8882 18.9969 16.6267 17.9704 16.6267H13.7691C12.7394 16.6267 12.7521 14.8882 13.7691 14.8882H13.7596ZM37.2385 18.3295C37.2391 18.0862 37.1614 17.8494 37.0173 17.6553C36.8733 17.4612 36.6708 17.3205 36.4408 17.2547L26.7416 7.6299C26.6392 7.50125 26.5099 7.39755 26.3631 7.32641C26.2163 7.25527 26.0557 7.21848 25.8931 7.21875H8.97035C8.44778 7.21875 7.94661 7.43022 7.5771 7.80664C7.20759 8.18307 7 8.6936 7 9.22594L7 43.591C7.00084 44.1231 7.2087 44.6331 7.57803 45.0094C7.94736 45.3856 8.44804 45.5974 8.97035 45.5982H27.9747C27.3766 44.8971 26.8366 44.1467 26.3603 43.3547H9.19916V9.44932H24.7967V18.5497C24.7963 18.6975 24.8245 18.8439 24.8797 18.9806C24.935 19.1172 25.0161 19.2415 25.1186 19.3461C25.221 19.4508 25.3427 19.5338 25.4767 19.5905C25.6107 19.6471 25.7544 19.6763 25.8995 19.6763H35.0362V23.5126C35.7819 23.9918 36.516 24.4288 37.2385 24.8238V18.3295ZM35.0616 30.0943C37.3465 31.5673 39.4091 32.2666 41.1792 32.1015C41.497 38.4727 39.1771 42.2345 35.087 43.8014C35.0611 43.7932 35.0356 43.7834 35.0107 43.7723V30.1364L35.0616 30.0943ZM34.9948 28.0515C37.9567 29.9648 40.6358 30.8712 42.9398 30.6576C43.3402 38.9259 40.3434 43.8079 35.0298 45.8442C29.8815 43.9374 26.8592 39.2691 27.0848 30.5281C29.9338 30.7443 32.7582 29.8588 34.9948 28.0482V28.0515Z" fill="#FFDD51" fill-opacity="0.69"/>
<path fill-rule="evenodd" clip-rule="evenodd" d="M34.9917 26.8989C38.3381 29.0583 41.3476 30.0813 43.9599 29.8417C44.4112 39.1817 41.0266 44.6982 35.0266 47C29.23 44.8439 25.8105 39.554 26.0552 29.6993C29.2737 29.9435 32.4644 28.9437 34.9917 26.8989ZM26.9895 11.1457L33.5743 17.4263H26.9895V11.1457ZM13.7596 25.3482H27.0658C27.9365 25.3482 28.051 26.5623 27.4853 26.9669C27.2215 27.0155 26.9609 27.0576 26.6971 27.0932H13.7691C12.7458 27.0932 12.7458 25.3677 13.7691 25.3515L13.7596 25.3482ZM13.7596 30.7676H23.0361C23.0615 31.3633 23.1028 31.9428 23.1537 32.5094H13.7691C12.7394 32.5094 12.7521 30.7676 13.7691 30.7676H13.7596ZM13.7596 36.1871H23.678C23.7988 36.786 23.9355 37.3687 24.088 37.9288H13.7691C12.7394 37.9288 12.7521 36.1871 13.7691 36.1871H13.7596ZM13.7596 19.9288H21.4153C22.445 19.9288 22.4323 21.6673 21.4153 21.6673H13.7691C12.7394 21.6673 12.749 19.9288 13.7691 19.9288H13.7596ZM13.7596 14.8882H17.9704C18.9842 14.8882 18.9969 16.6267 17.9704 16.6267H13.7691C12.7394 16.6267 12.7521 14.8882 13.7691 14.8882H13.7596ZM37.2385 18.3295C37.2391 18.0862 37.1614 17.8494 37.0173 17.6553C36.8733 17.4612 36.6708 17.3205 36.4408 17.2547L26.7416 7.6299C26.6392 7.50125 26.5099 7.39755 26.3631 7.32641C26.2163 7.25527 26.0557 7.21848 25.8931 7.21875H8.97035C8.44778 7.21875 7.94661 7.43022 7.5771 7.80664C7.20759 8.18307 7 8.6936 7 9.22594L7 43.591C7.00084 44.1231 7.2087 44.6331 7.57803 45.0094C7.94736 45.3856 8.44804 45.5974 8.97035 45.5982H27.9747C27.3766 44.8971 26.8366 44.1467 26.3603 43.3547H9.19916V9.44932H24.7967V18.5497C24.7963 18.6975 24.8245 18.8439 24.8797 18.9806C24.935 19.1172 25.0161 19.2415 25.1186 19.3461C25.221 19.4508 25.3427 19.5338 25.4767 19.5905C25.6107 19.6471 25.7544 19.6763 25.8995 19.6763H35.0362V23.5126C35.7819 23.9918 36.516 24.4288 37.2385 24.8238V18.3295ZM35.0616 30.0943C37.3465 31.5673 39.4091 32.2666 41.1792 32.1015C41.497 38.4727 39.1771 42.2345 35.087 43.8014C35.0611 43.7932 35.0356 43.7834 35.0107 43.7723V30.1364L35.0616 30.0943ZM34.9948 28.0515C37.9567 29.9648 40.6358 30.8712 42.9398 30.6576C43.3402 38.9259 40.3434 43.8079 35.0298 45.8442C29.8815 43.9374 26.8592 39.2691 27.0848 30.5281C29.9338 30.7443 32.7582 29.8588 34.9948 28.0482V28.0515Z" stroke="#2E220E" stroke-opacity="0.35" stroke-width="2"/>
</g>
<defs>
<filter id="filter0_d_439_6742" x="0" y="0.21875" width="51" height="53.8502" filterUnits="userSpaceOnUse" color-interpolation-filters="sRGB">
<feFlood flood-opacity="0" result="BackgroundImageFix"/>
<feColorMatrix in="SourceAlpha" type="matrix" values="0 0 0 0 0 0 0 0 0 0 0 0 0 0 0 0 0 0 127 0" result="hardAlpha"/>
<feOffset/>
<feGaussianBlur stdDeviation="3"/>
<feColorMatrix type="matrix" values="0 0 0 0 0.262745 0 0 0 0 0.223529 0 0 0 0 0.152941 0 0 0 1 0"/>
<feBlend mode="normal" in2="BackgroundImageFix" result="effect1_dropShadow_439_6742"/>
<feBlend mode="normal" in="SourceGraphic" in2="effect1_dropShadow_439_6742" result="shape"/>
</filter>
</defs>
</svg>
